<?xml version="1.0" standalone="no"?>
<!DOCTYPE svg PUBLIC "-//W3C//DTD SVG 20010904//EN"
 "http://www.w3.org/TR/2001/REC-SVG-20010904/DTD/svg10.dtd">
<svg version="1.0" xmlns="http://www.w3.org/2000/svg"
 width="256.000000pt" height="256.000000pt" viewBox="0 0 256.000000 256.000000"
 preserveAspectRatio="xMidYMid meet">

<g transform="translate(0.000000,256.000000) scale(0.100000,-0.100000)"
fill="#000000" stroke="none">
<path d="M1766 2138 c-33 -53 -326 -539 -326 -542 0 -1 19 -8 43 -15 141 -42
237 -169 238 -318 1 -48 4 -63 14 -59 19 7 87 -13 112 -33 86 -71 81 -213 -10
-270 -32 -20 -48 -20 -548 -23 l-514 -3 -43 22 -42 23 75 -98 c42 -53 84 -108
95 -122 l18 -25 -73 -120 c-43 -72 -78 -119 -86 -117 -28 5 37 -42 96 -69 94
-44 157 -49 510 -43 343 6 385 12 478 62 87 47 141 120 314 424 170 297 193
353 193 458 0 108 -23 160 -198 463 -173 298 -208 350 -275 398 -48 35 -53 35
-71 7z m-828 -1345 c-2 -31 -7 -39 -26 -41 -33 -5 -39 24 -12 54 32 33 42 30
38 -13z m100 0 c-2 -30 -8 -39 -24 -41 -32 -5 -39 26 -13 55 31 32 41 29 37
-14z m100 0 c-2 -30 -8 -39 -24 -41 -30 -4 -37 22 -13 52 29 36 41 32 37 -11z"/>
<path d="M1073 1771 c4 -18 7 -46 7 -62 0 -24 4 -29 23 -28 57 2 58 11 10 69
-46 55 -46 55 -40 21z"/>
<path d="M1182 1640 l-31 -54 37 -16 c33 -15 41 -15 74 -2 42 17 41 21 -15 87
l-34 39 -31 -54z"/>
<path d="M710 1514 c0 -3 14 -24 32 -46 29 -38 32 -39 45 -22 19 26 18 28 -32
52 -25 12 -45 19 -45 16z"/>
<path d="M801 1369 c-24 -5 -45 -10 -47 -12 -6 -5 78 -102 88 -102 21 0 41 52
34 88 -7 39 -8 39 -75 26z"/>
</g>
</svg>
